<svg width="1922" height="1081" viewBox="0 0 1922 1081" fill="none" xmlns="http://www.w3.org/2000/svg" xmlns:xlink="http://www.w3.org/1999/xlink">
<rect width="1922" height="1081" fill="url(#pattern0_39_193)" fill-opacity="0.45"/>
<defs>
<pattern id="pattern0_39_193" patternUnits="userSpaceOnUse" patternTransform="matrix(372.04 0 0 363.52 2.97656 26.5814)" preserveAspectRatio="none" viewBox="2.97656 26.5814 372.04 363.52" width="1" height="1">
<use xlink:href="#pattern0_39_193_inner" transform="translate(-372.04 0)"/>
<g id="pattern0_39_193_inner">
<path d="M5.95349 32.5349H8.93023V35.5116H5.95349V32.5349ZM2.97674 32.5349H5.95349V35.5116H2.97674V32.5349ZM2.97674 35.5116H5.95349V38.4884H2.97674V35.5116ZM8.93023 29.5581H11.907V32.5349H8.93023V29.5581ZM8.93023 26.5814H11.907V29.5581H8.93023V26.5814ZM11.907 26.5814H14.8837V29.5581H11.907V26.5814ZM11.907 29.5581H14.8837V32.5349H11.907V29.5581ZM14.8837 26.5814H17.8605V29.5581H14.8837V26.5814ZM17.8605 29.5581H20.8372V32.5349H17.8605V29.5581ZM14.8837 29.5581H17.8605V32.5349H14.8837V29.5581ZM14.8837 32.5349H17.8605V35.5116H14.8837V32.5349ZM17.8605 32.5349H20.8372V35.5116H17.8605V32.5349ZM17.8605 35.5116H20.8372V38.4884H17.8605V35.5116ZM20.8372 32.5349H23.814V35.5116H20.8372V32.5349ZM23.814 32.5349H26.7907V35.5116H23.814V32.5349ZM23.814 35.5116H26.7907V38.4884H23.814V35.5116ZM20.8372 35.5116H23.814V38.4884H20.8372V35.5116ZM29.7674 38.4884H32.7442V41.4651H29.7674V38.4884ZM26.7907 38.4884H29.7674V41.4651H26.7907V38.4884ZM26.7907 41.4651H29.7674V44.4419H26.7907V41.4651ZM29.7674 41.4651H32.7442V44.4419H29.7674V41.4651ZM29.7674 44.4419H32.7442V47.4186H29.7674V44.4419ZM29.7674 47.4186H32.7442V50.3953H29.7674V47.4186ZM26.7907 47.4186H29.7674V50.3953H26.7907V47.4186ZM26.7907 44.4419H29.7674V47.4186H26.7907V44.4419ZM26.7907 50.3953H29.7674V53.3721H26.7907V50.3953ZM26.7907 53.3721H29.7674V56.3488H26.7907V53.3721ZM29.7674 53.3721H32.7442V56.3488H29.7674V53.3721ZM29.7674 50.3953H32.7442V53.3721H29.7674V50.3953ZM26.7907 56.3488H29.7674V59.3256H26.7907V56.3488ZM29.7674 56.3488H32.7442V59.3256H29.7674V56.3488ZM29.7674 59.3256H32.7442V62.3023H29.7674V59.3256ZM26.7907 59.3256H29.7674V62.3023H26.7907V59.3256ZM26.7907 62.3023H29.7674V65.2791H26.7907V62.3023ZM26.7907 65.2791H29.7674V68.2558H26.7907V65.2791ZM29.7674 65.2791H32.7442V68.2558H29.7674V65.2791ZM29.7674 62.3023H32.7442V65.2791H29.7674V62.3023ZM44.6512 38.4884H47.6279V41.4651H44.6512V38.4884ZM47.6279 38.4884H50.6047V41.4651H47.6279V38.4884ZM47.6279 41.4651H50.6047V44.4419H47.6279V41.4651ZM47.6279 44.4419H50.6047V47.4186H47.6279V44.4419ZM47.6279 47.4186H50.6047V50.3953H47.6279V47.4186ZM47.6279 50.3953H50.6047V53.3721H47.6279V50.3953ZM47.6279 53.3721H50.6047V56.3488H47.6279V53.3721ZM47.6279 56.3488H50.6047V59.3256H47.6279V56.3488ZM47.6279 59.3256H50.6047V62.3023H47.6279V59.3256ZM44.6512 59.3256H47.6279V62.3023H44.6512V59.3256ZM44.6512 62.3023H47.6279V65.2791H44.6512V62.3023ZM44.6512 65.2791H47.6279V68.2558H44.6512V65.2791ZM47.6279 65.2791H50.6047V68.2558H47.6279V65.2791ZM47.6279 62.3023H50.6047V65.2791H47.6279V62.3023ZM44.6512 56.3488H47.6279V59.3256H44.6512V56.3488ZM44.6512 41.4651H47.6279V44.4419H44.6512V41.4651ZM26.7907 80.1628H29.7674V83.1395H26.7907V80.1628ZM26.7907 77.186H29.7674V80.1628H26.7907V77.186ZM26.7907 74.2093H29.7674V77.186H26.7907V74.2093ZM26.7907 71.2326H29.7674V74.2093H26.7907V71.2326ZM29.7674 71.2326H32.7442V74.2093H29.7674V71.2326ZM29.7674 68.2558H32.7442V71.2326H29.7674V68.2558ZM29.7674 74.2093H32.7442V77.186H29.7674V74.2093ZM29.7674 77.186H32.7442V80.1628H29.7674V77.186ZM29.7674 80.1628H32.7442V83.1395H29.7674V80.1628ZM26.7907 68.2558H29.7674V71.2326H26.7907V68.2558ZM44.6512 83.1395H47.6279V86.1163H44.6512V83.1395ZM47.6279 83.1395H50.6047V86.1163H47.6279V83.1395ZM47.6279 80.1628H50.6047V83.1395H47.6279V80.1628ZM47.6279 77.186H50.6047V80.1628H47.6279V77.186ZM47.6279 74.2093H50.6047V77.186H47.6279V74.2093ZM47.6279 71.2326H50.6047V74.2093H47.6279V71.2326ZM47.6279 68.2558H50.6047V71.2326H47.6279V68.2558ZM44.6512 68.2558H47.6279V71.2326H44.6512V68.2558ZM44.6512 71.2326H47.6279V74.2093H44.6512V71.2326ZM44.6512 74.2093H47.6279V77.186H44.6512V74.2093ZM44.6512 77.186H47.6279V80.1628H44.6512V77.186ZM44.6512 80.1628H47.6279V83.1395H44.6512V80.1628ZM5.95349 29.5581H8.93023V32.5349H5.95349V29.5581ZM17.8605 26.5814H20.8372V29.5581H17.8605V26.5814ZM20.8372 29.5581H23.814V32.5349H20.8372V29.5581ZM29.7674 35.5116H32.7442V38.4884H29.7674V35.5116ZM23.814 38.4884H26.7907V41.4651H23.814V38.4884ZM26.7907 35.5116H29.7674V38.4884H26.7907V35.5116ZM20.8372 38.4884H23.814V41.4651H20.8372V38.4884ZM23.814 41.4651H26.7907V44.4419H23.814V41.4651ZM20.8372 26.5814H23.814V29.5581H20.8372V26.5814ZM23.814 29.5581H26.7907V32.5349H23.814V29.5581ZM26.7907 32.5349H29.7674V35.5116H26.7907V32.5349ZM11.907 32.5349H14.8837V35.5116H11.907V32.5349ZM14.8837 35.5116H17.8605V38.4884H14.8837V35.5116ZM17.8605 38.4884H20.8372V41.4651H17.8605V38.4884ZM20.8372 41.4651H23.814V44.4419H20.8372V41.4651ZM23.814 44.4419H26.7907V47.4186H23.814V44.4419ZM44.6512 86.1163H47.6279V89.093H44.6512V86.1163ZM44.6512 89.093H47.6279V92.0698H44.6512V89.093ZM47.6279 89.093H50.6047V92.0698H47.6279V89.093ZM47.6279 92.0698H50.6047V95.0465H47.6279V92.0698ZM47.6279 86.1163H50.6047V89.093H47.6279V86.1163ZM44.6512 92.0698H47.6279V95.0465H44.6512V92.0698ZM41.6744 92.0698H44.6512V95.0465H41.6744V92.0698ZM38.6977 92.0698H41.6744V95.0465H38.6977V92.0698ZM32.7442 38.4884H35.7209V41.4651H32.7442V38.4884ZM35.7209 38.4884H38.6977V41.4651H35.7209V38.4884ZM35.7209 41.4651H38.6977V44.4419H35.7209V41.4651ZM35.7209 44.4419H38.6977V47.4186H35.7209V44.4419ZM35.7209 47.4186H38.6977V50.3953H35.7209V47.4186ZM35.7209 50.3953H38.6977V53.3721H35.7209V50.3953ZM35.7209 56.3488H38.6977V59.3256H35.7209V56.3488ZM35.7209 62.3023H38.6977V65.2791H35.7209V62.3023ZM35.7209 65.2791H38.6977V68.2558H35.7209V65.2791ZM35.7209 68.2558H38.6977V71.2326H35.7209V68.2558ZM35.7209 71.2326H38.6977V74.2093H35.7209V71.2326ZM35.7209 74.2093H38.6977V77.186H35.7209V74.2093ZM35.7209 80.1628H38.6977V83.1395H35.7209V80.1628ZM35.7209 77.186H38.6977V80.1628H35.7209V77.186ZM35.7209 59.3256H38.6977V62.3023H35.7209V59.3256ZM35.7209 53.3721H38.6977V56.3488H35.7209V53.3721ZM32.7442 41.4651H35.7209V44.4419H32.7442V41.4651ZM32.7442 44.4419H35.7209V47.4186H32.7442V44.4419ZM32.7442 47.4186H35.7209V50.3953H32.7442V47.4186ZM32.7442 56.3488H35.7209V59.3256H32.7442V56.3488ZM32.7442 59.3256H35.7209V62.3023H32.7442V59.3256ZM32.7442 62.3023H35.7209V65.2791H32.7442V62.3023ZM32.7442 65.2791H35.7209V68.2558H32.7442V65.2791ZM32.7442 68.2558H35.7209V71.2326H32.7442V68.2558ZM32.7442 71.2326H35.7209V74.2093H32.7442V71.2326ZM32.7442 74.2093H35.7209V77.186H32.7442V74.2093ZM32.7442 77.186H35.7209V80.1628H32.7442V77.186ZM32.7442 80.1628H35.7209V83.1395H32.7442V80.1628ZM32.7442 53.3721H35.7209V56.3488H32.7442V53.3721ZM32.7442 50.3953H35.7209V53.3721H32.7442V50.3953ZM44.6512 53.3721H47.6279V56.3488H44.6512V53.3721ZM44.6512 50.3953H47.6279V53.3721H44.6512V50.3953ZM44.6512 47.4186H47.6279V50.3953H44.6512V47.4186ZM44.6512 44.4419H47.6279V47.4186H44.6512V44.4419ZM29.7674 92.0698H32.7442V95.0465H29.7674V92.0698ZM32.7442 92.0698H35.7209V95.0465H32.7442V92.0698ZM35.7209 92.0698H38.6977V95.0465H35.7209V92.0698ZM26.7907 89.093H29.7674V92.0698H26.7907V89.093ZM29.7674 89.093H32.7442V92.0698H29.7674V89.093ZM32.7442 89.093H35.7209V92.0698H32.7442V89.093ZM29.7674 95.0465H32.7442V98.0233H29.7674V95.0465ZM29.7674 98.0233H32.7442V101H29.7674V98.0233ZM26.7907 95.0465H29.7674V98.0233H26.7907V95.0465ZM26.7907 92.0698H29.7674V95.0465H26.7907V92.0698ZM35.7209 89.093H38.6977V92.0698H35.7209V89.093ZM38.6977 89.093H41.6744V92.0698H38.6977V89.093ZM41.6744 89.093H44.6512V92.0698H41.6744V89.093ZM23.814 89.093H26.7907V92.0698H23.814V89.093ZM20.8372 89.093H23.814V92.0698H20.8372V89.093ZM20.8372 92.0698H23.814V95.0465H20.8372V92.0698ZM23.814 92.0698H26.7907V95.0465H23.814V92.0698ZM17.8605 95.0465H20.8372V98.0233H17.8605V95.0465ZM14.8837 98.0233H17.8605V101H14.8837V98.0233ZM32.7442 95.0465H35.7209V98.0233H32.7442V95.0465ZM35.7209 95.0465H38.6977V98.0233H35.7209V95.0465ZM35.7209 98.0233H38.6977V101H35.7209V98.0233ZM32.7442 98.0233H35.7209V101H32.7442V98.0233ZM38.6977 95.0465H41.6744V98.0233H38.6977V95.0465ZM41.6744 95.0465H44.6512V98.0233H41.6744V95.0465ZM38.6977 98.0233H41.6744V101H38.6977V98.0233ZM53.5814 95.0465H56.5581V98.0233H53.5814V95.0465ZM50.6047 95.0465H53.5814V98.0233H50.6047V95.0465ZM53.5814 98.0233H56.5581V101H53.5814V98.0233ZM56.5581 98.0233H59.5349V101H56.5581V98.0233ZM59.5349 95.0465H62.5116V98.0233H59.5349V95.0465ZM56.5581 95.0465H59.5349V98.0233H56.5581V95.0465ZM50.6047 89.093H53.5814V92.0698H50.6047V89.093ZM53.5814 89.093H56.5581V92.0698H53.5814V89.093ZM56.5581 89.093H59.5349V92.0698H56.5581V89.093ZM59.5349 89.093H62.5116V92.0698H59.5349V89.093ZM59.5349 92.0698H62.5116V95.0465H59.5349V92.0698ZM56.5581 92.0698H59.5349V95.0465H56.5581V92.0698ZM53.5814 92.0698H56.5581V95.0465H53.5814V92.0698ZM50.6047 92.0698H53.5814V95.0465H50.6047V92.0698ZM62.5116 89.093H65.4884V92.0698H62.5116V89.093ZM65.4884 89.093H68.4651V92.0698H65.4884V89.093ZM62.5116 92.0698H65.4884V95.0465H62.5116V92.0698ZM68.4651 86.1163H71.4419V89.093H68.4651V86.1163ZM68.4651 83.1395H71.4419V86.1163H68.4651V83.1395ZM50.6047 35.5116H53.5814V38.4884H50.6047V35.5116ZM53.5814 35.5116H56.5581V38.4884H53.5814V35.5116ZM53.5814 32.5349H56.5581V35.5116H53.5814V32.5349ZM38.6977 35.5116H41.6744V38.4884H38.6977V35.5116ZM41.6744 35.5116H44.6512V38.4884H41.6744V35.5116ZM44.6512 35.5116H47.6279V38.4884H44.6512V35.5116ZM35.7209 35.5116H38.6977V38.4884H35.7209V35.5116ZM38.6977 32.5349H41.6744V35.5116H38.6977V32.5349ZM41.6744 32.5349H44.6512V35.5116H41.6744V32.5349ZM50.6047 38.4884H53.5814V41.4651H50.6047V38.4884ZM17.8605 92.0698H20.8372V95.0465H17.8605V92.0698ZM14.8837 95.0465H17.8605V98.0233H14.8837V95.0465ZM65.4884 86.1163H68.4651V89.093H65.4884V86.1163ZM50.6047 86.1163H53.5814V89.093H50.6047V86.1163ZM23.814 50.3953H26.7907V53.3721H23.814V50.3953ZM20.8372 50.3953H23.814V53.3721H20.8372V50.3953ZM20.8372 53.3721H23.814V56.3488H20.8372V53.3721ZM23.814 53.3721H26.7907V56.3488H23.814V53.3721ZM23.814 62.3023H26.7907V65.2791H23.814V62.3023ZM20.8372 62.3023H23.814V65.2791H20.8372V62.3023ZM20.8372 65.2791H23.814V68.2558H20.8372V65.2791ZM23.814 65.2791H26.7907V68.2558H23.814V65.2791ZM17.8605 50.3953H20.8372V53.3721H17.8605V50.3953ZM14.8837 50.3953H17.8605V53.3721H14.8837V50.3953ZM14.8837 53.3721H17.8605V56.3488H14.8837V53.3721ZM17.8605 53.3721H20.8372V56.3488H17.8605V53.3721ZM17.8605 62.3023H20.8372V65.2791H17.8605V62.3023ZM14.8837 62.3023H17.8605V65.2791H14.8837V62.3023ZM14.8837 65.2791H17.8605V68.2558H14.8837V65.2791ZM17.8605 65.2791H20.8372V68.2558H17.8605V65.2791ZM86.282 95.0465H89.2587V98.0233H86.282V95.0465ZM86.282 92.0698H89.2587V95.0465H86.282V92.0698ZM86.282 89.093H89.2587V92.0698H86.282V89.093ZM86.282 86.1163H89.2587V89.093H86.282V86.1163ZM86.282 83.1395H89.2587V86.1163H86.282V83.1395ZM86.282 80.1628H89.2587V83.1395H86.282V80.1628ZM86.282 77.186H89.2587V80.1628H86.282V77.186ZM86.282 74.2093H89.2587V77.186H86.282V74.2093ZM86.282 71.2326H89.2587V74.2093H86.282V71.2326ZM86.282 68.2558H89.2587V71.2326H86.282V68.2558ZM89.2587 68.2558H92.2355V71.2326H89.2587V68.2558ZM92.2355 68.2558H95.2122V71.2326H92.2355V68.2558ZM83.3052 68.2558H86.282V71.2326H83.3052V68.2558ZM83.3052 71.2326H86.282V74.2093H83.3052V71.2326ZM83.3052 74.2093H86.282V77.186H83.3052V74.2093ZM83.3052 77.186H86.282V80.1628H83.3052V77.186ZM83.3052 80.1628H86.282V83.1395H83.3052V80.1628ZM83.3052 83.1395H86.282V86.1163H83.3052V83.1395ZM83.3052 86.1163H86.282V89.093H83.3052V86.1163ZM83.3052 89.093H86.282V92.0698H83.3052V89.093ZM83.3052 92.0698H86.282V95.0465H83.3052V92.0698ZM89.2587 92.0698H92.2355V95.0465H89.2587V92.0698ZM92.2355 92.0698H95.2122V95.0465H92.2355V92.0698ZM92.2355 89.093H95.2122V92.0698H92.2355V89.093ZM92.2355 86.1163H95.2122V89.093H92.2355V86.1163ZM92.2355 83.1395H95.2122V86.1163H92.2355V83.1395ZM92.2355 80.1628H95.2122V83.1395H92.2355V80.1628ZM92.2355 77.186H95.2122V80.1628H92.2355V77.186ZM92.2355 74.2093H95.2122V77.186H92.2355V74.2093ZM92.2355 71.2326H95.2122V74.2093H92.2355V71.2326ZM89.2587 71.2326H92.2355V74.2093H89.2587V71.2326ZM89.2587 74.2093H92.2355V77.186H89.2587V74.2093ZM89.2587 77.186H92.2355V80.1628H89.2587V77.186ZM89.2587 80.1628H92.2355V83.1395H89.2587V80.1628ZM89.2587 83.1395H92.2355V86.1163H89.2587V83.1395ZM89.2587 86.1163H92.2355V89.093H89.2587V86.1163ZM89.2587 89.093H92.2355V92.0698H89.2587V89.093ZM89.2587 95.0465H92.2355V98.0233H89.2587V95.0465ZM92.2355 95.0465H95.2122V98.0233H92.2355V95.0465ZM92.2355 98.0233H95.2122V101H92.2355V98.0233ZM89.2587 98.0233H92.2355V101H89.2587V98.0233ZM95.2122 92.0698H98.189V95.0465H95.2122V92.0698ZM98.189 92.0698H101.166V95.0465H98.189V92.0698ZM101.166 92.0698H104.142V95.0465H101.166V92.0698ZM92.2355 65.2791H95.2122V68.2558H92.2355V65.2791ZM92.2355 62.3023H95.2122V65.2791H92.2355V62.3023ZM92.2355 59.3256H95.2122V62.3023H92.2355V59.3256ZM92.2355 56.3488H95.2122V59.3256H92.2355V56.3488ZM83.3052 62.3023H86.282V65.2791H83.3052V62.3023ZM83.3052 65.2791H86.282V68.2558H83.3052V65.2791ZM86.282 65.2791H89.2587V68.2558H86.282V65.2791ZM86.282 62.3023H89.2587V65.2791H86.282V62.3023ZM89.2587 62.3023H92.2355V65.2791H89.2587V62.3023ZM89.2587 59.3256H92.2355V62.3023H89.2587V59.3256ZM89.2587 56.3488H92.2355V59.3256H89.2587V56.3488ZM89.2587 65.2791H92.2355V68.2558H89.2587V65.2791ZM98.189 50.3953H101.166V53.3721H98.189V50.3953ZM98.189 53.3721H101.166V56.3488H98.189V53.3721ZM95.2122 53.3721H98.189V56.3488H95.2122V53.3721ZM101.166 50.3953H104.142V53.3721H101.166V50.3953ZM104.142 50.3953H107.119V53.3721H104.142V50.3953ZM104.142 53.3721H107.119V56.3488H104.142V53.3721ZM101.166 53.3721H104.142V56.3488H101.166V53.3721ZM104.142 56.3488H107.119V59.3256H104.142V56.3488ZM110.096 56.3488H113.073V59.3256H110.096V56.3488ZM110.096 59.3256H113.073V62.3023H110.096V59.3256ZM107.119 59.3256H110.096V62.3023H107.119V59.3256ZM107.119 56.3488H110.096V59.3256H107.119V56.3488ZM86.282 59.3256H89.2587V62.3023H86.282V59.3256ZM80.3285 92.0698H83.3052V95.0465H80.3285V92.0698ZM77.3517 92.0698H80.3285V95.0465H77.3517V92.0698ZM77.3517 89.093H80.3285V92.0698H77.3517V89.093ZM80.3285 89.093H83.3052V92.0698H80.3285V89.093ZM95.2122 89.093H98.189V92.0698H95.2122V89.093ZM98.189 89.093H101.166V92.0698H98.189V89.093ZM101.166 89.093H104.142V92.0698H101.166V89.093ZM104.142 89.093H107.119V92.0698H104.142V89.093ZM95.2122 98.0233H98.189V101H95.2122V98.0233ZM95.2122 95.0465H98.189V98.0233H95.2122V95.0465ZM98.189 95.0465H101.166V98.0233H98.189V95.0465ZM101.166 56.3488H104.142V59.3256H101.166V56.3488ZM104.142 59.3256H107.119V62.3023H104.142V59.3256ZM110.096 62.3023H113.073V65.2791H110.096V62.3023ZM107.119 62.3023H110.096V65.2791H107.119V62.3023ZM110.096 65.2791H113.073V68.2558H110.096V65.2791ZM107.119 50.3953H110.096V53.3721H107.119V50.3953ZM110.096 53.3721H113.073V56.3488H110.096V53.3721ZM107.119 53.3721H110.096V56.3488H107.119V53.3721ZM113.073 56.3488H116.049V59.3256H113.073V56.3488ZM113.073 59.3256H116.049V62.3023H113.073V59.3256ZM113.073 62.3023H116.049V65.2791H113.073V62.3023ZM104.142 68.2558H107.119V71.2326H104.142V68.2558ZM101.166 68.2558H104.142V71.2326H101.166V68.2558ZM98.189 68.2558H101.166V71.2326H98.189V68.2558ZM95.2122 68.2558H98.189V71.2326H95.2122V68.2558ZM95.2122 71.2326H98.189V74.2093H95.2122V71.2326ZM98.189 71.2326H101.166V74.2093H98.189V71.2326ZM101.166 71.2326H104.142V74.2093H101.166V71.2326ZM104.142 71.2326H107.119V74.2093H104.142V71.2326ZM107.119 68.2558H110.096V71.2326H107.119V68.2558ZM107.119 71.2326H110.096V74.2093H107.119V71.2326ZM113.073 65.2791H116.049V68.2558H113.073V65.2791ZM95.2122 56.3488H98.189V59.3256H95.2122V56.3488ZM92.2355 53.3721H95.2122V56.3488H92.2355V53.3721ZM95.2122 50.3953H98.189V53.3721H95.2122V50.3953ZM130.907 62.3023H133.884V65.2791H130.907V62.3023ZM133.884 62.3023H136.86V65.2791H133.884V62.3023ZM133.884 65.2791H136.86V68.2558H133.884V65.2791ZM136.86 62.3023H139.837V65.2791H136.86V62.3023ZM127.93 62.3023H130.907V65.2791H127.93V62.3023ZM127.93 65.2791H130.907V68.2558H127.93V65.2791ZM127.93 71.2326H130.907V74.2093H127.93V71.2326ZM127.93 74.2093H130.907V77.186H127.93V74.2093ZM127.93 77.186H130.907V80.1628H127.93V77.186ZM127.93 80.1628H130.907V83.1395H127.93V80.1628ZM127.93 83.1395H130.907V86.1163H127.93V83.1395ZM127.93 86.1163H130.907V89.093H127.93V86.1163ZM130.907 86.1163H133.884V89.093H130.907V86.1163ZM133.884 86.1163H136.86V89.093H133.884V86.1163ZM133.884 83.1395H136.86V86.1163H133.884V83.1395ZM136.86 83.1395H139.837V86.1163H136.86V83.1395ZM136.86 80.1628H139.837V83.1395H136.86V80.1628ZM136.86 74.2093H139.837V77.186H136.86V74.2093ZM136.86 71.2326H139.837V74.2093H136.86V71.2326ZM136.86 68.2558H139.837V71.2326H136.86V68.2558ZM136.86 65.2791H139.837V68.2558H136.86V65.2791ZM133.884 68.2558H136.86V71.2326H133.884V68.2558ZM133.884 71.2326H136.86V74.2093H133.884V71.2326ZM133.884 74.2093H136.86V77.186H133.884V74.2093ZM133.884 77.186H136.86V80.1628H133.884V77.186ZM133.884 80.1628H136.86V83.1395H133.884V80.1628ZM136.86 77.186H139.837V80.1628H136.86V77.186ZM130.907 77.186H133.884V80.1628H130.907V77.186ZM130.907 74.2093H133.884V77.186H130.907V74.2093ZM130.907 71.2326H133.884V74.2093H130.907V71.2326ZM130.907 68.2558H133.884V71.2326H130.907V68.2558ZM130.907 65.2791H133.884V68.2558H130.907V65.2791ZM127.93 68.2558H130.907V71.2326H127.93V68.2558ZM130.907 80.1628H133.884V83.1395H130.907V80.1628ZM130.907 83.1395H133.884V86.1163H130.907V83.1395ZM124.953 92.0698H127.93V95.0465H124.953V92.0698ZM121.977 92.0698H124.953V95.0465H121.977V92.0698ZM121.977 89.093H124.953V92.0698H121.977V89.093ZM124.953 89.093H127.93V92.0698H124.953V89.093ZM127.93 89.093H130.907V92.0698H127.93V89.093ZM127.93 92.0698H130.907V95.0465H127.93V92.0698ZM130.907 92.0698H133.884V95.0465H130.907V92.0698ZM133.884 92.0698H136.86V95.0465H133.884V92.0698ZM136.86 92.0698H139.837V95.0465H136.86V92.0698ZM136.86 89.093H139.837V92.0698H136.86V89.093ZM136.86 86.1163H139.837V89.093H136.86V86.1163ZM133.884 89.093H136.86V92.0698H133.884V89.093ZM130.907 89.093H133.884V92.0698H130.907V89.093ZM133.884 95.0465H136.86V98.0233H133.884V95.0465ZM133.884 98.0233H136.86V101H133.884V98.0233ZM136.86 98.0233H139.837V101H136.86V98.0233ZM136.86 95.0465H139.837V98.0233H136.86V95.0465ZM139.837 92.0698H142.814V95.0465H139.837V92.0698ZM139.837 89.093H142.814V92.0698H139.837V89.093ZM142.814 89.093H145.791V92.0698H142.814V89.093ZM142.814 92.0698H145.791V95.0465H142.814V92.0698ZM142.814 95.0465H145.791V98.0233H142.814V95.0465ZM142.814 98.0233H145.791V101H142.814V98.0233ZM139.837 98.0233H142.814V101H139.837V98.0233ZM139.837 95.0465H142.814V98.0233H139.837V95.0465ZM145.791 89.093H148.767V92.0698H145.791V89.093ZM148.767 89.093H151.744V92.0698H148.767V89.093ZM148.767 92.0698H151.744V95.0465H148.767V92.0698ZM145.791 92.0698H148.767V95.0465H145.791V92.0698ZM151.744 89.093H154.721V92.0698H151.744V89.093ZM154.721 89.093H157.698V92.0698H154.721V89.093ZM151.744 92.0698H154.721V95.0465H151.744V92.0698ZM151.744 86.1163H154.721V89.093H151.744V86.1163ZM151.744 83.1395H154.721V86.1163H151.744V83.1395ZM154.721 83.1395H157.698V86.1163H154.721V83.1395ZM154.721 86.1163H157.698V89.093H154.721V86.1163ZM157.698 83.1395H160.674V86.1163H157.698V83.1395ZM160.674 80.1628H163.651V83.1395H160.674V80.1628ZM160.674 77.186H163.651V80.1628H160.674V77.186ZM160.674 74.2093H163.651V77.186H160.674V74.2093ZM157.698 74.2093H160.674V77.186H157.698V74.2093ZM154.721 74.2093H157.698V77.186H154.721V74.2093ZM154.721 77.186H157.698V80.1628H154.721V77.186ZM151.744 77.186H154.721V80.1628H151.744V77.186ZM151.744 80.1628H154.721V83.1395H151.744V80.1628ZM154.721 80.1628H157.698V83.1395H154.721V80.1628ZM157.698 80.1628H160.674V83.1395H157.698V80.1628ZM157.698 77.186H160.674V80.1628H157.698V77.186ZM151.744 74.2093H154.721V77.186H151.744V74.2093ZM151.744 71.2326H154.721V74.2093H151.744V71.2326ZM154.721 71.2326H157.698V74.2093H154.721V71.2326ZM154.721 68.2558H157.698V71.2326H154.721V68.2558ZM157.698 68.2558H160.674V71.2326H157.698V68.2558ZM160.674 68.2558H163.651V71.2326H160.674V68.2558ZM160.674 71.2326H163.651V74.2093H160.674V71.2326ZM157.698 71.2326H160.674V74.2093H157.698V71.2326ZM151.744 68.2558H154.721V71.2326H151.744V68.2558ZM151.744 65.2791H154.721V68.2558H151.744V65.2791ZM154.721 65.2791H157.698V68.2558H154.721V65.2791ZM154.721 62.3023H157.698V65.2791H154.721V62.3023ZM157.698 62.3023H160.674V65.2791H157.698V62.3023ZM160.674 62.3023H163.651V65.2791H160.674V62.3023ZM160.674 65.2791H163.651V68.2558H160.674V65.2791ZM157.698 65.2791H160.674V68.2558H157.698V65.2791ZM151.744 62.3023H154.721V65.2791H151.744V62.3023ZM139.837 50.3953H142.814V53.3721H139.837V50.3953ZM139.837 53.3721H142.814V56.3488H139.837V53.3721ZM142.814 53.3721H145.791V56.3488H142.814V53.3721ZM142.814 50.3953H145.791V53.3721H142.814V50.3953ZM136.86 56.3488H139.837V59.3256H136.86V56.3488ZM133.884 56.3488H136.86V59.3256H133.884V56.3488ZM136.86 59.3256H139.837V62.3023H136.86V59.3256ZM133.884 59.3256H136.86V62.3023H133.884V59.3256ZM145.791 50.3953H148.767V53.3721H145.791V50.3953ZM148.767 50.3953H151.744V53.3721H148.767V50.3953ZM148.767 53.3721H151.744V56.3488H148.767V53.3721ZM145.791 53.3721H148.767V56.3488H145.791V53.3721ZM151.744 50.3953H154.721V53.3721H151.744V50.3953ZM154.721 50.3953H157.698V53.3721H154.721V50.3953ZM154.721 53.3721H157.698V56.3488H154.721V53.3721ZM151.744 53.3721H154.721V56.3488H151.744V53.3721ZM163.651 59.3256H166.628V62.3023H163.651V59.3256ZM163.651 56.3488H166.628V59.3256H163.651V56.3488ZM166.628 56.3488H169.605V59.3256H166.628V56.3488ZM166.628 59.3256H169.605V62.3023H166.628V59.3256ZM160.674 56.3488H163.651V59.3256H160.674V56.3488ZM157.698 56.3488H160.674V59.3256H157.698V56.3488ZM154.721 56.3488H157.698V59.3256H154.721V56.3488ZM151.744 56.3488H154.721V59.3256H151.744V56.3488ZM154.721 59.3256H157.698V62.3023H154.721V59.3256ZM157.698 59.3256H160.674V62.3023H157.698V59.3256ZM160.674 59.3256H163.651V62.3023H160.674V59.3256ZM151.744 59.3256H154.721V62.3023H151.744V59.3256ZM130.907 95.0465H133.884V98.0233H130.907V95.0465ZM157.698 53.3721H160.674V56.3488H157.698V53.3721ZM130.907 59.3256H133.884V62.3023H130.907V59.3256ZM145.791 95.0465H148.767V98.0233H145.791V95.0465ZM157.698 86.1163H160.674V89.093H157.698V86.1163ZM160.674 83.1395H163.651V86.1163H160.674V83.1395ZM160.674 86.1163H163.651V89.093H160.674V86.1163ZM160.674 89.093H163.651V92.0698H160.674V89.093ZM157.698 89.093H160.674V92.0698H157.698V89.093ZM163.651 89.093H166.628V92.0698H163.651V89.093ZM166.628 89.093H169.605V92.0698H166.628V89.093ZM166.628 92.0698H169.605V95.0465H166.628V92.0698ZM163.651 92.0698H166.628V95.0465H163.651V92.0698ZM157.698 92.0698H160.674V95.0465H157.698V92.0698ZM154.721 92.0698H157.698V95.0465H154.721V92.0698ZM160.674 92.0698H163.651V95.0465H160.674V92.0698ZM157.698 95.0465H160.674V98.0233H157.698V95.0465ZM154.721 95.0465H157.698V98.0233H154.721V95.0465ZM160.674 95.0465H163.651V98.0233H160.674V95.0465ZM163.651 95.0465H166.628V98.0233H163.651V95.0465ZM160.674 98.0233H163.651V101H160.674V98.0233ZM154.721 98.0233H157.698V101H154.721V98.0233ZM157.698 98.0233H160.674V101H157.698V98.0233ZM136.86 53.3721H139.837V56.3488H136.86V53.3721ZM184.532 98.0233H187.509V101H184.532V98.0233ZM187.509 98.0233H190.485V101H187.509V98.0233ZM181.555 95.0465H184.532V98.0233H181.555V95.0465ZM184.532 95.0465H187.509V98.0233H184.532V95.0465ZM187.509 95.0465H190.485V98.0233H187.509V95.0465ZM190.485 95.0465H193.462V98.0233H190.485V95.0465ZM178.578 92.0698H181.555V95.0465H178.578V92.0698ZM181.555 92.0698H184.532V95.0465H181.555V92.0698ZM181.555 89.093H184.532V92.0698H181.555V89.093ZM184.532 89.093H187.509V92.0698H184.532V89.093ZM184.532 92.0698H187.509V95.0465H184.532V92.0698ZM187.509 92.0698H190.485V95.0465H187.509V92.0698ZM190.485 92.0698H193.462V95.0465H190.485V92.0698ZM190.485 89.093H193.462V92.0698H190.485V89.093ZM193.462 92.0698H196.439V95.0465H193.462V92.0698ZM187.509 89.093H190.485V92.0698H187.509V89.093ZM184.532 86.1163H187.509V89.093H184.532V86.1163ZM187.509 86.1163H190.485V89.093H187.509V86.1163ZM190.485 86.1163H193.462V89.093H190.485V86.1163ZM190.485 83.1395H193.462V86.1163H190.485V83.1395ZM187.509 83.1395H190.485V86.1163H187.509V83.1395ZM184.532 83.1395H187.509V86.1163H184.532V83.1395ZM184.532 80.1628H187.509V83.1395H184.532V80.1628ZM184.532 77.186H187.509V80.1628H184.532V77.186ZM184.532 74.2093H187.509V77.186H184.532V74.2093ZM184.532 71.2326H187.509V74.2093H184.532V71.2326ZM184.532 68.2558H187.509V71.2326H184.532V68.2558ZM187.509 68.2558H190.485V71.2326H187.509V68.2558ZM190.485 68.2558H193.462V71.2326H190.485V68.2558ZM190.485 71.2326H193.462V74.2093H190.485V71.2326ZM190.485 74.2093H193.462V77.186H190.485V74.2093ZM190.485 77.186H193.462V80.1628H190.485V77.186ZM187.509 77.186H190.485V80.1628H187.509V77.186ZM187.509 80.1628H190.485V83.1395H187.509V80.1628ZM187.509 74.2093H190.485V77.186H187.509V74.2093ZM187.509 71.2326H190.485V74.2093H187.509V71.2326ZM190.485 80.1628H193.462V83.1395H190.485V80.1628ZM190.485 65.2791H193.462V68.2558H190.485V65.2791ZM190.485 62.3023H193.462V65.2791H190.485V62.3023ZM190.485 59.3256H193.462V62.3023H190.485V59.3256ZM190.485 56.3488H193.462V59.3256H190.485V56.3488ZM190.485 53.3721H193.462V56.3488H190.485V53.3721ZM184.532 53.3721H187.509V56.3488H184.532V53.3721ZM187.509 56.3488H190.485V59.3256H187.509V56.3488ZM187.509 59.3256H190.485V62.3023H187.509V59.3256ZM187.509 62.3023H190.485V65.2791H187.509V62.3023ZM187.509 65.2791H190.485V68.2558H187.509V65.2791ZM184.532 65.2791H187.509V68.2558H184.532V65.2791ZM184.532 62.3023H187.509V65.2791H184.532V62.3023ZM184.532 59.3256H187.509V62.3023H184.532V59.3256ZM184.532 56.3488H187.509V59.3256H184.532V56.3488ZM187.509 53.3721H190.485V56.3488H187.509V53.3721ZM181.555 86.1163H184.532V89.093H181.555V86.1163ZM181.555 83.1395H184.532V86.1163H181.555V83.1395ZM181.555 80.1628H184.532V83.1395H181.555V80.1628ZM181.555 77.186H184.532V80.1628H181.555V77.186ZM181.555 74.2093H184.532V77.186H181.555V74.2093ZM181.555 71.2326H184.532V74.2093H181.555V71.2326ZM181.555 68.2558H184.532V71.2326H181.555V68.2558ZM181.555 65.2791H184.532V68.2558H181.555V65.2791ZM181.555 62.3023H184.532V65.2791H181.555V62.3023ZM181.555 59.3256H184.532V62.3023H181.555V59.3256ZM181.555 53.3721H184.532V56.3488H181.555V53.3721ZM181.555 56.3488H184.532V59.3256H181.555V56.3488ZM184.532 50.3953H187.509V53.3721H184.532V50.3953ZM187.509 50.3953H190.485V53.3721H187.509V50.3953ZM178.578 56.3488H181.555V59.3256H178.578V56.3488ZM208.346 98.0233H211.323V101H208.346V98.0233ZM211.323 98.0233H214.299V101H211.323V98.0233ZM205.369 95.0465H208.346V98.0233H205.369V95.0465ZM208.346 95.0465H211.323V98.0233H208.346V95.0465ZM211.323 95.0465H214.299V98.0233H211.323V95.0465ZM214.299 95.0465H217.276V98.0233H214.299V95.0465ZM202.392 92.0698H205.369V95.0465H202.392V92.0698ZM205.369 92.0698H208.346V95.0465H205.369V92.0698ZM205.369 89.093H208.346V92.0698H205.369V89.093ZM208.346 89.093H211.323V92.0698H208.346V89.093ZM208.346 92.0698H211.323V95.0465H208.346V92.0698ZM211.323 92.0698H214.299V95.0465H211.323V92.0698ZM214.299 92.0698H217.276V95.0465H214.299V92.0698ZM214.299 89.093H217.276V92.0698H214.299V89.093ZM217.276 92.0698H220.253V95.0465H217.276V92.0698ZM211.323 89.093H214.299V92.0698H211.323V89.093ZM208.346 86.1163H211.323V89.093H208.346V86.1163ZM211.323 86.1163H214.299V89.093H211.323V86.1163ZM214.299 86.1163H217.276V89.093H214.299V86.1163ZM214.299 83.1395H217.276V86.1163H214.299V83.1395ZM211.323 83.1395H214.299V86.1163H211.323V83.1395ZM208.346 83.1395H211.323V86.1163H208.346V83.1395ZM208.346 80.1628H211.323V83.1395H208.346V80.1628ZM208.346 77.186H211.323V80.1628H208.346V77.186ZM208.346 74.2093H211.323V77.186H208.346V74.2093ZM208.346 71.2326H211.323V74.2093H208.346V71.2326ZM208.346 68.2558H211.323V71.2326H208.346V68.2558ZM211.323 68.2558H214.299V71.2326H211.323V68.2558ZM214.299 68.2558H217.276V71.2326H214.299V68.2558ZM214.299 71.2326H217.276V74.2093H214.299V71.2326ZM214.299 74.2093H217.276V77.186H214.299V74.2093ZM214.299 77.186H217.276V80.1628H214.299V77.186ZM211.323 77.186H214.299V80.1628H211.323V77.186ZM211.323 80.1628H214.299V83.1395H211.323V80.1628ZM211.323 74.2093H214.299V77.186H211.323V74.2093ZM211.323 71.2326H214.299V74.2093H211.323V71.2326ZM214.299 80.1628H217.276V83.1395H214.299V80.1628ZM214.299 65.2791H217.276V68.2558H214.299V65.2791ZM214.299 62.3023H217.276V65.2791H214.299V62.3023ZM214.299 59.3256H217.276V62.3023H214.299V59.3256ZM214.299 56.3488H217.276V59.3256H214.299V56.3488ZM214.299 53.3721H217.276V56.3488H214.299V53.3721ZM208.346 53.3721H211.323V56.3488H208.346V53.3721ZM211.323 56.3488H214.299V59.3256H211.323V56.3488ZM211.323 59.3256H214.299V62.3023H211.323V59.3256ZM211.323 62.3023H214.299V65.2791H211.323V62.3023ZM211.323 65.2791H214.299V68.2558H211.323V65.2791ZM208.346 65.2791H211.323V68.2558H208.346V65.2791ZM208.346 62.3023H211.323V65.2791H208.346V62.3023ZM208.346 59.3256H211.323V62.3023H208.346V59.3256ZM208.346 56.3488H211.323V59.3256H208.346V56.3488ZM211.323 53.3721H214.299V56.3488H211.323V53.3721ZM205.369 86.1163H208.346V89.093H205.369V86.1163ZM205.369 83.1395H208.346V86.1163H205.369V83.1395ZM205.369 80.1628H208.346V83.1395H205.369V80.1628ZM205.369 77.186H208.346V80.1628H205.369V77.186ZM205.369 74.2093H208.346V77.186H205.369V74.2093ZM205.369 71.2326H208.346V74.2093H205.369V71.2326ZM205.369 68.2558H208.346V71.2326H205.369V68.2558ZM205.369 65.2791H208.346V68.2558H205.369V65.2791ZM205.369 62.3023H208.346V65.2791H205.369V62.3023ZM205.369 59.3256H208.346V62.3023H205.369V59.3256ZM205.369 53.3721H208.346V56.3488H205.369V53.3721ZM205.369 56.3488H208.346V59.3256H205.369V56.3488ZM220.253 89.093H223.23V92.0698H220.253V89.093ZM208.346 50.3953H211.323V53.3721H208.346V50.3953ZM211.323 50.3953H214.299V53.3721H211.323V50.3953ZM202.392 56.3488H205.369V59.3256H202.392V56.3488ZM217.276 56.3488H220.253V59.3256H217.276V56.3488ZM175.602 59.3256H178.578V62.3023H175.602V59.3256ZM178.578 59.3256H181.555V62.3023H178.578V59.3256ZM196.439 56.3488H199.416V59.3256H196.439V56.3488ZM199.416 56.3488H202.392V59.3256H199.416V56.3488ZM199.416 53.3721H202.392V56.3488H199.416V53.3721ZM202.392 53.3721H205.369V56.3488H202.392V53.3721ZM202.392 50.3953H205.369V53.3721H202.392V50.3953ZM205.369 50.3953H208.346V53.3721H205.369V50.3953ZM193.462 56.3488H196.439V59.3256H193.462V56.3488ZM202.392 59.3256H205.369V62.3023H202.392V59.3256ZM175.602 89.093H178.578V92.0698H175.602V89.093ZM178.578 89.093H181.555V92.0698H178.578V89.093ZM199.416 89.093H202.392V92.0698H199.416V89.093ZM202.392 89.093H205.369V92.0698H202.392V89.093ZM217.276 89.093H220.253V92.0698H217.276V89.093ZM175.602 56.3488H178.578V59.3256H175.602V56.3488ZM220.253 59.3256H223.23V62.3023H220.253V59.3256ZM217.276 59.3256H220.253V62.3023H217.276V59.3256ZM193.462 89.093H196.439V92.0698H193.462V89.093ZM220.253 56.3488H223.23V59.3256H220.253V56.3488ZM199.416 59.3256H202.392V62.3023H199.416V59.3256ZM196.439 59.3256H199.416V62.3023H196.439V59.3256ZM193.462 59.3256H196.439V62.3023H193.462V59.3256ZM199.416 92.0698H202.392V95.0465H199.416V92.0698ZM175.602 92.0698H178.578V95.0465H175.602V92.0698ZM181.555 98.0233H184.532V101H181.555V98.0233ZM205.369 98.0233H208.346V101H205.369V98.0233ZM178.578 53.3721H181.555V56.3488H178.578V53.3721ZM181.555 50.3953H184.532V53.3721H181.555V50.3953ZM241.134 95.0465H244.11V98.0233H241.134V95.0465ZM244.11 95.0465H247.087V98.0233H244.11V95.0465ZM232.203 92.0698H235.18V95.0465H232.203V92.0698ZM235.18 92.0698H238.157V95.0465H235.18V92.0698ZM235.18 89.093H238.157V92.0698H235.18V89.093ZM238.157 89.093H241.134V92.0698H238.157V89.093ZM238.157 92.0698H241.134V95.0465H238.157V92.0698ZM241.134 92.0698H244.11V95.0465H241.134V92.0698ZM244.11 92.0698H247.087V95.0465H244.11V92.0698ZM244.11 89.093H247.087V92.0698H244.11V89.093ZM241.134 89.093H244.11V92.0698H241.134V89.093ZM238.157 86.1163H241.134V89.093H238.157V86.1163ZM241.134 86.1163H244.11V89.093H241.134V86.1163ZM244.11 86.1163H247.087V89.093H244.11V86.1163ZM244.11 83.1395H247.087V86.1163H244.11V83.1395ZM241.134 83.1395H244.11V86.1163H241.134V83.1395ZM238.157 83.1395H241.134V86.1163H238.157V83.1395ZM238.157 80.1628H241.134V83.1395H238.157V80.1628ZM238.157 77.186H241.134V80.1628H238.157V77.186ZM238.157 74.2093H241.134V77.186H238.157V74.2093ZM238.157 71.2326H241.134V74.2093H238.157V71.2326ZM238.157 68.2558H241.134V71.2326H238.157V68.2558ZM241.134 68.2558H244.11V71.2326H241.134V68.2558ZM244.11 68.2558H247.087V71.2326H244.11V68.2558ZM244.11 71.2326H247.087V74.2093H244.11V71.2326ZM244.11 74.2093H247.087V77.186H244.11V74.2093ZM244.11 77.186H247.087V80.1628H244.11V77.186ZM241.134 77.186H244.11V80.1628H241.134V77.186ZM241.134 80.1628H244.11V83.1395H241.134V80.1628ZM241.134 74.2093H244.11V77.186H241.134V74.2093ZM241.134 71.2326H244.11V74.2093H241.134V71.2326ZM244.11 80.1628H247.087V83.1395H244.11V80.1628ZM244.11 65.2791H247.087V68.2558H244.11V65.2791ZM244.11 62.3023H247.087V65.2791H244.11V62.3023ZM244.11 59.3256H247.087V62.3023H244.11V59.3256ZM244.11 56.3488H247.087V59.3256H244.11V56.3488ZM244.11 53.3721H247.087V56.3488H244.11V53.3721ZM238.157 53.3721H241.134V56.3488H238.157V53.3721ZM241.134 56.3488H244.11V59.3256H241.134V56.3488ZM241.134 59.3256H244.11V62.3023H241.134V59.3256ZM241.134 62.3023H244.11V65.2791H241.134V62.3023ZM241.134 65.2791H244.11V68.2558H241.134V65.2791ZM238.157 65.2791H241.134V68.2558H238.157V65.2791ZM238.157 62.3023H241.134V65.2791H238.157V62.3023ZM238.157 59.3256H241.134V62.3023H238.157V59.3256ZM238.157 56.3488H241.134V59.3256H238.157V56.3488ZM241.134 53.3721H244.11V56.3488H241.134V53.3721ZM235.18 86.1163H238.157V89.093H235.18V86.1163ZM235.18 83.1395H238.157V86.1163H235.18V83.1395ZM235.18 80.1628H238.157V83.1395H235.18V80.1628ZM235.18 77.186H238.157V80.1628H235.18V77.186ZM235.18 74.2093H238.157V77.186H235.18V74.2093ZM235.18 71.2326H238.157V74.2093H235.18V71.2326ZM235.18 68.2558H238.157V71.2326H235.18V68.2558ZM235.18 65.2791H238.157V68.2558H235.18V65.2791ZM235.18 62.3023H238.157V65.2791H235.18V62.3023ZM235.18 59.3256H238.157V62.3023H235.18V59.3256ZM235.18 53.3721H238.157V56.3488H235.18V53.3721ZM235.18 56.3488H238.157V59.3256H235.18V56.3488ZM229.227 89.093H232.203V92.0698H229.227V89.093ZM232.203 89.093H235.18V92.0698H232.203V89.093ZM229.227 92.0698H232.203V95.0465H229.227V92.0698ZM229.227 50.3953H232.203V53.3721H229.227V50.3953ZM232.203 50.3953H235.18V53.3721H232.203V50.3953ZM232.203 53.3721H235.18V56.3488H232.203V53.3721ZM229.227 53.3721H232.203V56.3488H229.227V53.3721ZM247.087 53.3721H250.064V56.3488H247.087V53.3721ZM247.087 50.3953H250.064V53.3721H247.087V50.3953ZM250.064 50.3953H253.041V53.3721H250.064V50.3953ZM250.064 53.3721H253.041V56.3488H250.064V53.3721ZM235.18 50.3953H238.157V53.3721H235.18V50.3953ZM238.157 50.3953H241.134V53.3721H238.157V50.3953ZM241.134 50.3953H244.11V53.3721H241.134V50.3953ZM244.11 50.3953H247.087V53.3721H244.11V50.3953ZM244.11 47.4186H247.087V50.3953H244.11V47.4186ZM244.11 44.4419H247.087V47.4186H244.11V44.4419ZM244.11 41.4651H247.087V44.4419H244.11V41.4651ZM241.134 41.4651H244.11V44.4419H241.134V41.4651ZM238.157 41.4651H241.134V44.4419H238.157V41.4651ZM238.157 44.4419H241.134V47.4186H238.157V44.4419ZM238.157 47.4186H241.134V50.3953H238.157V47.4186ZM241.134 47.4186H244.11V50.3953H241.134V47.4186ZM241.134 44.4419H244.11V47.4186H241.134V44.4419ZM235.18 47.4186H238.157V50.3953H235.18V47.4186ZM235.18 44.4419H238.157V47.4186H235.18V44.4419ZM235.18 41.4651H238.157V44.4419H235.18V41.4651ZM244.11 35.5116H247.087V38.4884H244.11V35.5116ZM241.134 35.5116H244.11V38.4884H241.134V35.5116ZM241.134 38.4884H244.11V41.4651H241.134V38.4884ZM244.11 38.4884H247.087V41.4651H244.11V38.4884ZM244.11 32.5349H247.087V35.5116H244.11V32.5349ZM238.157 38.4884H241.134V41.4651H238.157V38.4884ZM253.041 50.3953H256.017V53.3721H253.041V50.3953ZM253.041 53.3721H256.017V56.3488H253.041V53.3721ZM253.041 89.093H256.017V92.0698H253.041V89.093ZM253.041 92.0698H256.017V95.0465H253.041V92.0698ZM250.064 92.0698H253.041V95.0465H250.064V92.0698ZM247.087 95.0465H250.064V98.0233H247.087V95.0465ZM244.11 98.0233H247.087V101H244.11V98.0233ZM241.134 98.0233H244.11V101H241.134V98.0233ZM256.017 53.3721H258.994V56.3488H256.017V53.3721ZM256.017 50.3953H258.994V53.3721H256.017V50.3953ZM247.087 89.093H250.064V92.0698H247.087V89.093ZM250.064 89.093H253.041V92.0698H250.064V89.093ZM256.017 89.093H258.994V92.0698H256.017V89.093ZM247.087 92.0698H250.064V95.0465H247.087V92.0698ZM247.087 98.0233H250.064V101H247.087V98.0233ZM250.064 95.0465H253.041V98.0233H250.064V95.0465Z" fill="#5E429E"/>
</g>
<use xlink:href="#pattern0_39_193_inner" transform="translate(-186.02 181.76)"/>
<use xlink:href="#pattern0_39_193_inner" transform="translate(186.02 181.76)"/>
</pattern></defs>
</svg>
